<?xml version="1.0" encoding="utf-8"?>
<!-- Generator: Adobe Illustrator 24.0.1, SVG Export Plug-In . SVG Version: 6.00 Build 0)  -->
<svg version="1.1" id="Ebene_1" xmlns="http://www.w3.org/2000/svg" xmlns:xlink="http://www.w3.org/1999/xlink" x="0px" y="0px"
	 viewBox="0 0 100 100" style="enable-background:new 0 0 100 100;" xml:space="preserve">
<style type="text/css">
	.st0{fill:#28A745;}
	.st1{fill:#FFFFFF;}
</style>
<path class="st0" d="M14.9,0h70c8.3,0,15,6.7,15,15v70c0,8.3-6.7,15-15,15h-70c-8.3,0-15-6.7-15-15V15C-0.1,6.7,6.7,0,14.9,0z"/>
<g>
	<path class="st1" d="M33.2,21.1c0-1,0-2,0-3c-1.1,0-2,0-2.9,0c0,1,0,2,0,2.9C31.3,21.1,32.3,21.1,33.2,21.1c0,1,0,2,0,3
		c-1,0-2,0-3.1,0c0,2.1,0,4.1,0,6.1c-2.1,0-4,0-5.9,0c0,1,0,2,0,3c2,0,4,0,6,0c0,1.1,0,2.1,0,3c-4,0-8.1,0-12.2,0c0-2.1,0-4.1,0-6
		c-2.1,0-4,0-6,0c0,1,0,1.9,0,2.9c1,0,1.9,0,2.9,0c0,2.1,0,4,0,6.1c-1.1,0-2,0-3,0c0-1,0-2,0-3c-2.1,0-4,0-6,0c0,1,0,2,0,2.9
		c2.1,0,4,0,6,0c0,1,0,2,0,3.1c-2.2,0-4.1,0-6,0c0,1.1,0,2,0,3c1,0,1.9,0,3,0c0,1.1,0,2.1,0,3c-1,0-2,0-3,0c0,3.1,0,6.1,0,9.2
		c1,0,1.9,0,3,0c0,1.1,0,2.1,0,3c-1,0-2,0-3,0c0,1.1,0,2,0,2.9c1,0,2,0,2.9,0c0-1.1,0-2,0-3c1,0,2.1,0,3.1,0c0,1,0,2,0,3
		c1.1,0,2.1,0,3,0c0,1,0,2,0,3.1c-2.2,0-4.1,0-6,0c0,1.1,0,2,0,2.9c4.1,0,8,0,12.1,0c0-1.1,0-2,0-3c1,0,2.1,0,3.1,0c0,1,0,2,0,3.1
		c2.1,0,4,0,6.1,0c0,2.1,0,4,0,6.1c2.1,0,4.1,0,6,0l0,0c0,2,0,4,0,6.2c-2.1,0-4.1,0-6,0c0,2.1,0,4,0,6c2,0,4,0,6,0c0,1.1,0,2.1,0,3
		c-1,0-2,0-3,0c0,1.1,0,2,0,2.9c1,0,2,0,2.9,0c0-1.1,0-2,0-3c1,0,2,0,3.1,0c0-4.2,0-8.1,0-12.1c1.1,0,2,0,3,0c0,1,0,1.9,0,2.9
		c2.1,0,4.1,0,6.1,0c0,1,0,2,0,3c1.1,0,2.1,0,3,0c0,1,0,2.1,0,3.1c-1,0-2,0-2.9,0c0,2.1,0,4.1,0,6c3,0,6,0,8.9,0c0-2,0-4,0-6
		c-1.1,0-2,0-3,0c0-1,0-2,0-3c-1.1,0-2.1,0-3,0c0-1,0-2,0-3c-1.1,0-2.1,0-3,0c0-1,0-2.1,0.1-3.1l0,0c1,0,2,0,3.1,0c0-2.2,0-4.1,0-6
		c1.1,0,2,0,3,0c0,1,0,1.9,0,3c2.1,0,4,0,6,0c0,2.1,0,4,0,6c-1,0-1.9,0-2.9,0c0,1.1,0,2,0,3.1c1,0,2,0,3,0c0,1.1,0,2,0,3
		c1,0,2,0,3,0c0,1.1,0,2.1,0,3c-1,0-2,0-3,0c0,1.1,0,2,0,2.9c1,0,2,0,2.9,0c0-1.1,0-2,0-3c1,0,2.1,0,3.1,0c0,1,0,2,0,3
		c1.1,0,2,0,2.9,0c0-1,0-2,0-2.9c-1.1,0-2,0-3,0c0-2,0-4,0-6.2c-1.1,0-2,0-2.9,0c0-1.1,0-1.9,0-2.9c3,0,6,0,9.1,0c0,1,0,1.9,0,3
		c1.1,0,2,0,3,0c0,2.1,0,4.1,0,6.1c-1,0-2,0-3,0c0,1.1,0,2,0,2.9c1,0,2,0,2.9,0c0-1.1,0-2,0-3c1,0,2,0,3.1,0c0-3.1,0-6.1,0-9
		c1.1-0.1,2.1-0.1,3-0.1c0,2,0,4,0,6.2c1,0,1.9,0,2.9,0c0,1.1,0,2,0,3.1c-1,0-1.9,0-2.8,0c0,1,0,2,0,2.9c3,0,6,0,9,0c0-1.1,0-2,0-3
		c1,0,2,0,3,0c0-2.1,0-4.1,0-6c-1.1,0-2,0-3,0c0-2,0-4,0-6c-1.1,0-2,0-3.1,0c0,1,0,1.9,0,2.9c-2.1,0-4,0-6,0c0-2,0-4,0-6.1
		c1.1,0,2,0,3,0c0-2.1,0-4.1,0-6c1,0,2,0,3,0c0-3.1,0-6.1,0-9c-2,0-3.9,0-5.9,0c0,1,0,1.9,0,3c1,0,1.9,0,3,0c0,2.1,0,4.1,0,6.1
		c-1,0-2,0-3.1,0c0-1.2,0-2.1,0-3.1c-2.1,0-4,0-6,0c0-1,0-2,0-3.1c-1.1,0-2,0-3.1,0c0-1.1,0-1.9,0-3c-1,0-2,0-2.9,0c0-1.1,0-2,0-3.1
		c2.1,0,4,0,6,0c0,1,0,2,0,3c1.1,0,2,0,3,0c0-1.1,0-2,0-3c1,0,2,0,3.1,0c0-2.1,0-4.1,0-6c1.1,0,2,0,3,0c0,2,0,4,0,6
		c2.1,0,4.1,0,6.1,0c0,1,0,2,0,3c1.1,0,2,0,2.9,0c0-1,0-2,0-2.9c-1.1,0-2,0-3,0c0-1,0-2,0-3.1c1.2,0,2.1,0,3,0c0-2.1,0-4,0-6
		c-2,0-4,0-6,0c0-1.1,0-2.1,0-3c1,0,2,0,3.1,0c0-1.1,0-2,0-3.1c1.1,0,2,0,2.9,0c0-1,0-2,0-3.1c-1,0-2,0-3,0c0-1.1,0-2,0-2.9
		c-1,0-2,0-3,0c0,3.1,0,6.1,0,9.1c-1,0-2,0-3.1,0c0-1.1,0-2.1,0-3.1c-2.1,0-4.1,0-6,0l0,0c0-1,0-2,0-3.1c1.1,0,2,0,3,0
		c0-1.1,0-2.1,0-3c1,0,2,0,3,0c0-1.1,0-2,0-3c-1.1,0-2,0-3,0c0-1,0-2,0-3c-1.1,0-2,0-3,0c0,1.1,0,2,0,3c-1,0-2,0-3.1,0
		c0-1.2,0-2.1,0-3.1c-3.1,0-6,0-9.1,0c0-1.1,0-2,0-3l0,0.1c1-0.1,2-0.1,3-0.2c0-3.1,0-6,0-9.1c-2,0-4,0-5.9,0
		c-0.1-1.1-0.1-2.1-0.1-3c1,0,2,0,3.1,0c0-1.1,0-2,0-3c1,0,2,0,3,0c0-1.1,0-2,0-2.9c-1,0-2,0-2.9,0c0,1.1,0,2,0,3c-1,0-2.1,0-3.1,0
		c0-2,0-4,0-6c-1.1,0-2,0-2.9,0c0,2,0,4,0,6c1.1,0,2,0,3,0c0,1,0,2-0.1,3c-2,0-4,0-6.1,0c0-1.1,0-2,0-3c-3.1,0-6.1,0-9.1,0
		c0-1,0-2,0-3.1c1.1,0,2.1,0,3,0c0-1.1,0-1.9,0-2.9c-2,0-4,0-6.1,0c0,1,0,1.9,0,3c-2.1,0-4.1,0-6.1,0c0-1,0-2,0-3c-1.1,0-2,0-2.9,0
		c0,1,0,2,0,2.9c1.1,0,2,0,3,0c0,1,0,2,0,3.1c1.1,0,2,0,3,0c0,1.1,0,2.1,0,3c-1,0-2,0-3.1,0c0,1.1,0,2,0,3.1c-1.1,0-2,0-3,0
		c0,1.1,0,2.1,0,3C35.2,21.1,34.2,21.1,33.2,21.1z M27,27.1C27,20,27,13,27,6C19.9,6,12.9,6,5.9,6c0,7.1,0,14.1,0,21.1
		C12.9,27.1,19.9,27.1,27,27.1z M5.9,72.9c0,7.1,0,14.1,0,21.1C13,94,20,94,27,94c0-7.1,0-14.1,0-21.1C20,72.9,13,72.9,5.9,72.9z
		 M94,6c-7.1,0-14.1,0-21.1,0c0,7.1,0,14.1,0,21.1c7.1,0,14.1,0,21.1,0C94,20,94,13.1,94,6z M45.3,85.1c-1,0-1.9,0-2.9,0
		c0,3,0,6,0,8.9c1,0,2,0,2.9,0C45.3,91,45.3,88.1,45.3,85.1z M94,72.9c-2.1,0-4,0-6,0c0,1,0,1.9,0,2.8c2,0,4,0,6,0
		C94,74.8,94,73.9,94,72.9z M94,66.7c0-1,0-2,0-2.9c-1,0-2,0-2.9,0c0,1,0,1.9,0,2.9C92.1,66.7,93,66.7,94,66.7z M57.5,8.8
		c0-1.1,0-2,0-2.9c-1,0-1.9,0-2.9,0c0,1,0,1.9,0,2.9C55.6,8.8,56.5,8.8,57.5,8.8z"/>
	<path d="M36.3,91.1c0-1,0-1.9,0-3c-2.1,0-4,0-6,0c0-2.1,0-4,0-6c1.9,0,3.9,0,6,0c0-2.2,0-4.2,0-6.2c1,0,2,0,3,0c0-2.1,0-4,0-6
		c-1,0-2,0-2.9,0c0,2.1,0,4,0,6c-2,0-3.9,0-6,0c0-2,0-4,0-6.1c-2.1,0-4,0-6.1,0c0-1.1,0-2.1,0-3.1l0,0c1,0,2,0,3.1,0
		c0-1.2,0-2.1,0-3.1c0,0,0,0,0,0c1,0,2.1,0,3.1,0c0,1,0,2,0,3c2.1,0,4,0,6,0c0-1,0-2,0-2.9c-2.1,0-4,0-6,0c0-1,0-2,0-3.1
		c1.2,0,2.1,0,3.1,0c0-1.1,0-2,0-2.9c4.1,0,8.1,0,12.1,0c0,1.1,0,2,0,3c-2,0-4,0-6,0c0,1.1,0,2,0,2.9c2,0,4,0,6,0c0-1.1,0-2,0-3
		c1,0,2,0,3.1,0c0-1.1,0-2,0-3c2.1,0,4.1,0,6,0c0,1,0,2.1,0,3.1c-1,0-2,0-3,0c0,1.1,0,2,0,2.9c1,0,2,0,2.9,0c0-1.1,0-2,0-3
		c1,0,2,0,3.1,0c0,2.2,0,4.2,0,6.2c-5.1,0-10.2,0-15.2,0c0,2.1,0,4,0,5.9c2,0,4,0,6.1,0c0-1,0-1.9,0-3c3.1,0,6.1,0,9.1,0
		c0,1,0,2,0,3c2.1,0,4,0,6,0c0-1,0-2,0-2.9c-2.1,0-4,0-6,0c0-1,0-2,0.1-3c1,0,2,0,3.1,0c0-1.2,0-2.1,0-3.1c2.1,0,4.1,0,6,0
		c0,1,0,2,0,3c1.1,0,2,0,2.9,0c0-1,0-2,0-2.9c-1.1,0-2,0-3,0c0-1,0-2,0-3.1c-1.1,0-2,0-2.9,0c0-1.1,0-2,0-3c1,0,1.9,0,2.9,0
		c0-1.1,0-2.1,0-3c1,0,2,0,3.1,0c0-1.1,0-2,0-3.1c1.1,0,2,0,2.9,0c0-1,0-2,0-3.1c-1,0-2,0-3,0c0-1.1,0-2,0-3c-1.1,0-2,0-3,0
		c0-1,0-2,0-3.1c1.1,0,2,0,2.9,0c0-1,0-2,0-2.9c-2,0-4,0-6,0c0,1,0,1.9,0,2.8c-1,0-2,0-3,0c0-2,0-4,0-5.9c-1.1,0-2,0-2.9,0
		c0,3,0,6,0,8.9c3.1,0,6.1,0,9.1,0c0,1,0,2,0,3.1c-1.1,0-2.1,0-3,0c0,1.1,0,2,0,3.1c1,0,2,0,3,0c0,1.1,0,2.1,0,3c-3,0-6,0-9.2,0
		c0,1.1,0,2,0,3c-1.1,0-2.1,0-3,0c0-3,0-6,0-9.1c-1.1,0-2.1,0-3,0c0-1,0-2,0-3.1c1.2,0,2.1,0,3,0c0-1.1,0-2,0-3c-1,0-1.9,0-2.8,0
		c0-1.1,0-2,0-3.1c1,0,1.9,0,2.8,0c0-1,0-2,0-3.1c-3.1,0-6,0-9.1,0c0-2.1,0-4,0-5.9c-1,0-2,0-3,0c0,3.1,0,6.1,0,9c-1,0-2,0-3,0
		c0,1.1,0,2,0,2.9c1,0,2,0,2.9,0c0-1.1,0-2,0-3c1,0,2,0,3.1,0c0,2.2,0,4.2,0,6.1c-2,0-4,0-6.2,0c0,3.1,0,6.1,0,9c-2.1,0-4,0-6.1,0
		c0-2,0-3.9,0-5.9c-1,0-2,0-3,0c0,3,0,6,0,9c-2.1,0-4.1,0-6.1,0l0,0c0-1,0-2,0-3.1c1.1,0,2,0,3,0c0-1,0-1.9,0-3c-3,0-6,0-9,0
		c-0.1-1.1-0.1-2.1-0.2-3.1c3,0,6.1,0,9.2,0c0-1.1,0-2,0-3c2,0,4,0,6,0c0-1.1,0-2,0-3c-2.1,0-4,0-6,0c0-1,0-2,0-2.9
		c-2.1,0-4.1,0-6.1,0c0,1,0,1.9,0,3c-2.1,0-4,0-5.9,0c0,1.1,0,2,0,3.1c1,0,1.9,0,2.9,0c0,1.1,0,2,0,3c-3,0-6.1,0-9.1,0c0,0,0,0,0,0
		c0-1,0-1.9,0-3c-1,0-2,0-3,0c0-1.1,0-1.9,0-3c1.9,0,3.9,0,6,0c0-1.1,0-2.1,0-3.1l0,0c1,0,1.9,0,3,0c0-2.1,0-4,0-6.1
		c-0.9,0-1.9,0-2.9,0c0-1.1,0-1.9,0-2.9c1.9,0,3.9,0,6,0c0,1.9,0,3.9,0,6c4.2,0,8.2,0,12.2,0l0,0c0,1,0,2,0,3c2.2,0,4.1,0,6.2,0
		c0-2,0-4,0-6c1,0,1.9,0,2.9,0c0-1,0-2,0-3c-1,0-1.9,0-2.9,0c0-2.1,0-4.1,0-6.1l0,0c1,0,2,0,3.1,0c0,1.1,0,2,0,2.9c1.1,0,2,0,3,0
		c0-2.1,0-4,0-6l0,0c2,0,4,0,6.1,0c0,1.1,0,2.1,0,3c-1,0-2,0-3,0c0,1.1,0,2,0,2.9c1,0,2,0,2.9,0c0-1.1,0-2,0-3c1,0,2,0,3.1,0
		c0,1.1,0,2.1,0,3c1.1,0,2,0,3,0c0-2.1,0-4,0-6c2,0,4,0,6,0c0-1.1,0-2,0-3c-2.1,0-4,0-6,0c0-1,0-2,0-3c-1.1,0-2,0-3,0c0,1.1,0,2,0,3
		c-2,0-4,0-6.1,0c0-1.2,0-2.1,0-3.1l0,0c1,0,2,0,3.1,0c0-1.2,0-2.1,0-3.1l0,0c3,0,5.9,0,9.1,0c0,1,0,1.9,0,3c2.1,0,4.1,0,6.1,0
		c0,0,0,0,0,0c0,1,0.1,1.9,0.1,3c1.9,0,3.9,0,5.9,0c0,3.1,0,6.1,0,9.1c-1,0.1-2,0.1-3,0.2c0-1,0-2,0-3c-1.1,0-2,0-3,0c0,1.1,0,2,0,3
		c-1,0-2,0-3.1,0c0-1.2,0-2.1,0-3c-1.1,0-2,0-2.9,0c0,3,0,6,0,8.9c1,0,2,0,3,0c0-1,0-1.9,0-3c1,0,2,0,3,0c0-1.1,0-2.1,0-3
		c1,0,2,0,3,0.1c0,1,0,1.9,0,3c3.1,0,6,0,9.1,0c0,1,0,2,0,3.1c1.1,0,2.1,0,3.1,0l0,0c0,1,0,2,0,3.1c1.2,0,2.1,0,3.1,0l0,0
		c0,1,0,1.9,0,3c-1,0-1.9,0-3,0c0,1.1,0,2.1,0,3.1c-1,0-2,0-3.1,0c0-2.2,0-4.1,0-6c-1.1,0-2,0-2.9,0c0,3,0,6,0,9c2.1,0,4,0,6,0
		c0,1,0,2,0,3c1.1,0,2,0,2.9,0c0-1,0-2,0-2.9c-1.1,0-2,0-3,0c0-1,0-2.1,0-3.1c2,0,3.9,0,6,0c0,1,0,2,0,3.1c1.1,0,2.1,0,3.1,0l0,0
		c0,1,0,1.9,0,3c2.1,0,4,0,6,0c0,2.1,0,4,0,6c-0.9,0-1.8,0-3,0c0,1.1,0,2.1,0,3.1l0,0c-2,0-3.9,0-6.1,0c0-2,0-4,0-6
		c-1.1,0-1.9,0-3,0c0,1.9,0,3.9,0,6c-1.1,0-2.1,0-3.1,0l0,0c0-1,0-2,0-3c-1.1,0-2.1,0-3.1,0c0,1.1,0,2,0,3l0,0c-2,0-3.9,0-6,0
		c0,1,0,2,0,3.1c0.9,0,1.9,0,2.9,0c0,1.1,0,1.9,0,3c1,0,2,0,3.1,0c0,1.1,0,2,0,3.1c2.1,0,4,0,6,0c0,1,0,2,0,3.1c1.1,0,2.1,0,3.1,0
		l0,0c0,2,0,3.9,0,6c-1,0-1.9,0-3,0c0,2.1,0,4.1,0,6.1c0,0,0,0,0,0c-1,0-1.9,0.1-3,0.1c0,2.9,0,5.9,0,9c-1.1,0-2.1,0-3.1,0l0,0
		c0-2,0-3.9,0-6.1c-1,0-2,0-3,0c0-1.1,0-2,0-3c-3.1,0-6.1,0-9.1,0c0,1,0,1.9,0,2.9c0.9,0,1.9,0,2.9,0c0,2.2,0,4.2,0,6.2c0,0,0,0,0,0
		c-1,0-2.1,0-3.1,0c0,0,0,0,0,0c0-1,0-1.9,0-3c-1,0-2,0-3,0c0-1,0-1.9,0-3c-1,0-2,0-3,0c0-1.1,0-2,0-3.1c0.9,0,1.9,0,2.9,0
		c0-2.1,0-4,0-6c-1.9,0-3.9,0-6,0c0-1.1,0-2,0-3c-1.1,0-1.9,0-3,0c0,1.9,0,3.9,0,6c-1.1,0-2.1,0-3.1,0c0-1,0-2,0-3c-1.1,0-2,0-2.9,0
		c0,1,0,2,0,2.9c1.1,0,2,0,3,0c0,1,0,2.1-0.1,3.1l0,0c-2,0-3.9,0-6.1,0c0-1,0-1.9,0-2.9c-1.1,0-2,0-3,0c0,3.9,0,7.9,0,12.1
		C38.2,91.1,37.2,91.1,36.3,91.1L36.3,91.1z M78.8,78.9c0-3.1,0-6,0-9c-3,0-6,0-8.9,0c0,3.1,0,6,0,9C72.8,78.9,75.7,78.9,78.8,78.9z
		 M66.6,78.8c0-1.1,0-2,0-2.9c-1,0-1.9,0-2.9,0c0,1,0,2,0,2.9C64.7,78.8,65.6,78.8,66.6,78.8z"/>
	<path d="M27,27.1c-7.1,0-14.1,0-21.1,0c0-7,0-14,0-21.1c7,0,14,0,21.1,0C27,13,27,20,27,27.1z M9,9c0,5.1,0,10.1,0,15
		c5.1,0,10.1,0,15,0c0-5.1,0-10,0-15C19,9,14,9,9,9z"/>
	<path d="M5.9,72.9c7.1,0,14.1,0,21.1,0c0,7,0,14,0,21.1c-7,0-14,0-21.1,0C5.9,87,5.9,80,5.9,72.9z M8.9,91c5.1,0,10.1,0,15,0
		c0-5.1,0-10.1,0-15c-5.1,0-10,0-15,0C8.9,81,8.9,85.9,8.9,91z"/>
	<path d="M94,6c0,7.1,0,14.1,0,21.1c-7,0-14,0-21.1,0c0-7,0-14,0-21.1C79.9,6,86.9,6,94,6z M90.9,24.1c0-5.1,0-10.1,0-15
		c-5.1,0-10.1,0-15,0c0,5.1,0,10,0,15C80.9,24.1,85.8,24.1,90.9,24.1z"/>
	<path d="M91,91.1c0,1,0,1.9,0,3c-3,0-6,0-9,0c0-0.9,0-1.9,0-2.9c1,0,1.8,0,2.8,0c0-1,0-2,0-3.1c-0.9,0-1.9,0-2.9,0
		c0-2.2,0-4.2,0-6.2c0,0,0,0,0,0c2,0,3.9,0,6,0c0-1,0-1.9,0-2.9c1,0,2,0,3.1,0c0,2,0,4,0,6l0,0c-1,0-2,0-3,0c0,2.2,0,4.1,0,6.1
		C89.1,91.1,90.1,91.1,91,91.1L91,91.1z"/>
	<path d="M8.9,60.7c0-1,0-1.9,0-3c-1,0-2,0-3,0c0-3.1,0-6,0-9.2c1,0,2,0,3,0c0,0,0,0,0,0c0,2,0,4,0,6.2c4.2,0,8.1,0,12.2,0
		c0,1.1,0,2.1,0,3c0,0,0,0,0,0c-3,0-6,0-9.2,0c0,1.2,0,2.1,0,3.1l0,0C10.9,60.6,9.9,60.6,8.9,60.7L8.9,60.7z"/>
	<path d="M30.2,36.3c0-1,0-1.9,0-3c-2,0-4,0-6,0c0-1.1,0-2,0-3c2,0,3.9,0,5.9,0c0-2,0-4,0-6.1c1.1,0,2.1,0,3.1,0c0,0,0,0,0,0
		c0,4,0,8.1,0,12.2C32,36.3,31.1,36.3,30.2,36.3L30.2,36.3z"/>
	<path d="M39.3,8.9c2,0,3.9,0,6.1,0c0-1,0-2,0-3c2.1,0,4,0,6.1,0c0,0.9,0,1.8,0,2.9c-0.9,0-1.8,0-3,0c0,1.1,0,2.1,0,3.1c0,0,0,0,0,0
		c-1,0-2,0-3.1,0c0,1.2,0,2.1,0,3.1l0,0c-1,0-2.1,0-3.1,0l0,0c0-1,0-1.9,0-3c-1,0-2,0-3,0C39.3,10.9,39.3,9.9,39.3,8.9L39.3,8.9z"/>
	<path d="M24.1,66.7c-1,0-2.1,0-3.1,0c0,0,0,0,0,0c0-1,0-2,0-3.1c-1.2,0-2.1,0-3.1,0l0,0c0-1,0-2,0-3.1c1.1,0,2,0,3,0
		c0-1.1,0-2.1,0-3l0,0c1,0,2.1,0,3.1,0l0,0c0,1,0,2,0,3.1c1.1,0,2.1,0,3,0c0,1.1,0,2.1,0,3c0,0,0,0,0,0c-1,0-2,0-3.1,0
		C24,64.8,24,65.8,24.1,66.7C24,66.8,24.1,66.7,24.1,66.7z"/>
	<path d="M21,66.7c0,1,0,1.9,0,3c-4,0-8,0-12.1,0c0-0.9,0-1.8,0-2.9c1.9,0,3.9,0,6,0c0-1.1,0-2.1,0-3.1l0,0c1,0,2.1,0,3.1,0l0,0
		c0,1,0,2,0,3.1C19.1,66.8,20.1,66.8,21,66.7L21,66.7z"/>
	<path d="M54.5,88.1c1,0,1.9,0,3,0c0,2,0,4,0,6c-3,0-5.9,0-8.9,0c0-1.9,0-3.9,0-6c1,0,2,0,2.9,0c0,0,0,0,0,0c0,1,0,2,0,3
		c1.1,0,2.1,0,3.1,0C54.5,89.9,54.5,89,54.5,88.1L54.5,88.1z"/>
	<path d="M85,69.8c0-2,0-3.9,0-6.1c-1,0-2,0-3,0c0-1.1,0-2,0-3c2,0,3.9,0,5.9,0c0,3,0,5.9,0,9C86.9,69.8,85.9,69.8,85,69.8
		C84.9,69.8,85,69.8,85,69.8z"/>
	<path d="M88,45.5c0-3,0-6,0-9.1c1,0,1.9,0,3,0c0,0.9,0,1.8,0,2.9c1,0,2,0,3,0c0,1.1,0,2,0,3.1c-0.9,0-1.8,0-2.9,0c0,1,0,2,0,3.1
		C89.9,45.4,88.9,45.4,88,45.5C88,45.4,88,45.5,88,45.5z"/>
	<path d="M36.3,21.1c0-1,0-1.9,0-3c1,0,1.9,0,3,0c0-1.1,0-2,0-3.1c1.1,0,2.1,0,3.1,0c0,0,0,0,0,0c0,2,0,4.1,0,6.1c0,0,0,0,0,0
		C40.3,21.1,38.3,21.1,36.3,21.1L36.3,21.1z"/>
	<path d="M45.3,85.1c0,3,0,5.9,0,8.9c-0.9,0-1.8,0-2.9,0c0-2.9,0-5.9,0-8.9C43.4,85.1,44.3,85.1,45.3,85.1z"/>
	<path d="M11.9,39.3c-2,0-3.9,0-6,0c0-1,0-1.9,0-2.9c1.9,0,3.8,0,6,0C11.9,37.4,11.9,38.4,11.9,39.3C11.9,39.4,11.9,39.3,11.9,39.3z
		"/>
	<path d="M91,85c1,0,1.9,0,3,0c0,2,0,3.9,0,6c-1,0-2,0-3,0c0,0,0,0,0,0C91,89.1,91,87,91,85L91,85z"/>
	<path d="M94,72.9c0,1,0,1.9,0,2.8c-2,0-3.9,0-6,0c0-0.9,0-1.8,0-2.8C90,72.9,91.9,72.9,94,72.9z"/>
	<path d="M63.6,11.9c-1,0-1.9,0-3,0c0-2,0-3.9,0-6c0.9,0,1.8,0,2.9,0C63.6,8,63.6,10,63.6,11.9L63.6,11.9z"/>
	<path d="M63.6,12c1,0,2.1,0,3.1,0c0,0,0,0,0,0c0,0.9,0,1.9,0,3c-1.1,0-2.1,0-3.1,0c0,0,0,0,0,0C63.6,14,63.6,12.9,63.6,12
		C63.6,11.9,63.6,12,63.6,12z"/>
	<path d="M78.8,57.6c0,1,0,1.9,0,3c-1,0-1.9,0-3,0c0-1,0-2,0-3c0,0,0,0,0,0C76.8,57.6,77.8,57.6,78.8,57.6L78.8,57.6z"/>
	<path d="M91,57.6c1,0,1.9,0,3,0c0,1,0,1.9,0,2.9c-0.9,0-1.8,0-2.9,0C91,59.6,91,58.6,91,57.6C91,57.6,91,57.6,91,57.6z"/>
	<path d="M8.8,60.6c0,1,0,1.9,0,3c-1,0-1.9,0-2.9,0c0-0.9,0-1.8,0-2.9C6.9,60.7,7.9,60.7,8.8,60.6C8.9,60.7,8.8,60.6,8.8,60.6z"/>
	<path d="M15,63.7c-1,0-1.9,0-3,0c0-1.1,0-2.1,0-3c0,0,0,0,0,0c1,0,2,0,3,0C14.9,61.8,14.9,62.8,15,63.7L15,63.7z"/>
	<path d="M94,66.7c-1,0-1.9,0-2.9,0c0-1,0-1.8,0-2.9c0.9,0,1.8,0,2.9,0C94,64.7,94,65.6,94,66.7z"/>
	<path d="M66.7,12c0-1,0-1.9,0-3c1,0,1.9,0,2.9,0c0,0.9,0,1.8,0,2.9C68.6,11.9,67.6,11.9,66.7,12C66.6,11.9,66.7,12,66.7,12z"/>
	<path d="M81.9,33.3c1,0,1.9,0,3,0c0,1,0,1.9,0,3c-1,0-2,0-3,0c0,0,0,0,0,0C81.9,35.3,81.9,34.3,81.9,33.3L81.9,33.3z"/>
	<path d="M57.5,8.8c-1,0-1.9,0-2.9,0c0-0.9,0-1.9,0-2.9c0.9,0,1.9,0,2.9,0C57.5,6.9,57.5,7.8,57.5,8.8z"/>
	<path d="M78.9,33.3c0-1,0-1.9,0-3c1,0,1.9,0,3,0c0,1,0,2,0,3c0,0,0,0,0,0C80.9,33.2,79.9,33.2,78.9,33.3L78.9,33.3z"/>
	<path d="M48.4,82c1,0,1.9,0,3,0c0,1.1,0,2.1,0,3l0,0c-1,0-1.9,0-3,0C48.4,83.9,48.4,82.9,48.4,82C48.4,81.9,48.4,82,48.4,82z"/>
	<path d="M39.3,8.9c-1,0-1.9,0-3,0c0-1,0-1.9,0-2.9c0.9,0,1.8,0,2.9,0C39.3,7,39.3,7.9,39.3,8.9C39.3,8.9,39.3,8.9,39.3,8.9z"/>
	<path d="M33.2,21.1c1,0,2.1,0,3.1,0c0,0,0,0,0,0c0,1,0,2.1,0,3.1l0,0c-1,0-2.1,0-3.1,0c0,0,0,0,0,0C33.2,23.1,33.2,22.1,33.2,21.1
		C33.2,21.1,33.2,21.1,33.2,21.1z"/>
	<path d="M51.4,85c1,0,1.9,0,3,0c0,1.1,0,2.1,0,3c0,0,0,0,0,0c-1,0-2.1,0-3.1,0c0,0,0,0,0,0C51.5,87,51.5,86,51.4,85
		C51.5,85,51.4,85,51.4,85z"/>
	<path d="M33.2,21.1c-1,0-1.9,0-3,0c0-1,0-1.9,0-2.9c0.9,0,1.8,0,2.9,0C33.2,19.1,33.2,20.1,33.2,21.1
		C33.2,21.1,33.2,21.1,33.2,21.1z"/>
	<path d="M36.2,91.1c0,1,0,1.9,0,3c-1,0-1.9,0-2.9,0c0-0.9,0-1.8,0-2.9C34.3,91.1,35.3,91.1,36.2,91.1
		C36.3,91.1,36.2,91.1,36.2,91.1z"/>
	<path d="M63.6,91.1c0,1,0,1.9,0,3c-1,0-1.9,0-2.9,0c0-0.9,0-1.8,0-2.9C61.7,91.1,62.7,91.1,63.6,91.1
		C63.7,91.1,63.6,91.1,63.6,91.1z"/>
	<path d="M66.6,91.1c1,0,1.9,0,3,0c0,1,0,1.9,0,2.9c-0.9,0-1.8,0-2.9,0C66.7,93,66.7,92,66.6,91.1C66.7,91.1,66.6,91.1,66.6,91.1z"
		/>
	<path d="M75.8,91.1c0,1,0,1.9,0,3c-1,0-1.9,0-2.9,0c0-0.9,0-1.8,0-2.9C73.9,91.1,74.8,91.1,75.8,91.1
		C75.8,91.1,75.8,91.1,75.8,91.1z"/>
	<path class="st0" d="M27.1,63.7c0-1,0-1.9,0-3c-1,0-1.9,0-3,0c0-1.1,0-2.1,0-3.1c2,0,3.9,0,6.1,0c0-3,0-6,0-9c1.1,0,2,0,3,0
		c0,1.9,0,3.8,0,5.9c2,0,4,0,6.1,0c0-2.9,0-5.9,0-9c2.2,0,4.2,0,6.2,0c0,0,0,0,0,0c0,1,0,2,0,3.1c1.2,0,2.1,0,3.1,0l0,0c0,1,0,2,0,3
		c1.1,0,2.1,0,3.1,0c0-1.1,0-2,0-3l0,0c1,0,1.9,0,3,0c0,3.1,0,6.1,0,9.1l0,0c-2,0-3.9,0-6,0c0,1,0,2,0,3c-1.1,0-2.1,0-3.1,0l0,0
		c0-1,0-1.9,0-3c-4.1,0-8.1,0-12.1,0c0,0.9,0,1.8,0,2.9c-1,0-2,0-3.1,0c0,1.1,0,2.1,0,3.1l0,0C29.1,63.7,28.1,63.7,27.1,63.7z
		 M42.4,51.5c0,1,0,1.9,0,2.9c1,0,1.9,0,2.8,0c0-1,0-2,0-2.9C44.3,51.5,43.4,51.5,42.4,51.5z"/>
	<path class="st0" d="M42.3,39.4c0-3,0-6,0-9c1,0,1.9,0,3,0c0,1.9,0,3.8,0,5.9c3.1,0,6,0,9.1,0c0,1.1,0,2,0,3.1c-0.9,0-1.8,0-2.8,0
		c0,1,0,2,0,3.1c0.9,0,1.8,0,2.8,0c0,1.1,0,1.9,0,3c-0.9,0-1.8,0-3,0c0,1.1,0,2.1,0,3.1c0,0,0,0,0,0c-1,0-2.1,0-3.1,0l0,0
		c0-1,0-2,0-3.1c-1.2,0-2.1,0-3.1,0c0,0,0,0,0,0c0-2,0-3.9,0-6.1C44.3,39.3,43.3,39.3,42.3,39.4L42.3,39.4z"/>
	<path class="st0" d="M24.1,57.6c-1,0-2.1,0-3.1,0c0-1,0-1.9,0-3c-4,0-8,0-12.2,0c0-2.2,0-4.2,0-6.2c3,0,6.1,0,9.1,0c0,0,0,0,0,0
		c0.1,1,0.1,2,0.2,3.1c3,0,6,0,9,0c0,1,0,1.9,0,3c-0.9,0-1.9,0-3,0C24.1,55.6,24.1,56.6,24.1,57.6z"/>
	<path class="st0" d="M54.5,57.6c1,0,1.9,0,3,0c0-1,0-2,0-3c3.2,0,6.2,0,9.2,0l0,0c0,1,0,1.9,0,3c-1,0-1.9,0-2.9,0c0,1.1,0,1.9,0,3
		c0.9,0,1.8,0,2.9,0c0,1.1,0,2.1,0,3.1l0,0c-2,0-3.9,0-6,0c0,1,0,1.9,0,3.1c-1.1,0-2.1,0-3.1,0c0,0,0,0,0,0c0-2,0-4,0-6.2
		c-1.2,0-2.2,0-3.1,0l0,0C54.5,59.6,54.5,58.6,54.5,57.6C54.5,57.6,54.5,57.6,54.5,57.6z"/>
	<path class="st1" d="M78.8,78.9c-3,0-5.9,0-8.9,0c0-3,0-5.9,0-9c2.9,0,5.9,0,8.9,0C78.8,72.8,78.8,75.8,78.8,78.9z M75.7,75.8
		c0-1.1,0-2,0-2.9c-1,0-2,0-2.8,0c0,1,0,2,0,2.9C73.9,75.8,74.7,75.8,75.7,75.8z"/>
	<path class="st0" d="M27.1,45.4c0,1,0,1.9,0,3c-3.1,0-6.1,0-9.2,0c0,0,0,0,0,0c0-1,0-1.9,0-3c-1,0-1.9,0-2.9,0c0-1,0-2,0-3.1
		c1.9,0,3.9,0,5.9,0c0-1.1,0-1.9,0-3c2,0,4,0,6.1,0c0,1,0,2,0,2.9l0,0c-1,0-2,0-3,0c0,1.1,0,2.1,0,3.1
		C25.2,45.5,26.2,45.5,27.1,45.4L27.1,45.4z"/>
	<path class="st0" d="M33.2,24.1c1,0,2.1,0,3.1,0c0,2,0,3.9,0,6.1c1,0,1.9,0,2.9,0c0,1.1,0,2,0,3c-0.9,0-1.8,0-2.9,0c0,2,0,4,0,6
		c-2.1,0-4,0-6.2,0c0-1,0-2,0-3c1,0,1.9,0,3,0C33.2,32.2,33.2,28.1,33.2,24.1z"/>
	<path class="st1" d="M57.6,69.8c-3,0-6,0-9.1,0c0,1,0,2,0,3c-2.1,0-4,0-6.1,0c0-2,0-3.9,0-5.9c5.1,0,10.1,0,15.2,0c0,0,0,0,0,0
		C57.6,67.8,57.5,68.8,57.6,69.8L57.6,69.8z"/>
	<path class="st0" d="M42.3,21.1c0-2,0-4.1,0-6.1c1,0,2.1,0,3.1,0c0,1,0,1.9,0,3.1c2.1,0,4.1,0,6.1,0l0,0c0,1,0,2,0,3.1
		c1.2,0,2.1,0,3.1,0l0,0c0,2,0,3.9,0,6c-1,0-1.9,0-3,0c0-0.9,0-1.8,0-3c-1.1,0-2.1,0-3.1,0l0,0c0-1,0-1.9,0-3
		C46.3,21.1,44.3,21.1,42.3,21.1z"/>
	<path class="st0" d="M66.7,45.3c-3,0-6,0-9.1,0c0-3,0-5.9,0-8.9c0.9,0,1.8,0,2.9,0c0,1.9,0,3.9,0,5.9c1.1,0,2,0,3,0
		c0-0.9,0-1.8,0-2.8c2,0,4,0,6,0c0,0.9,0,1.8,0,2.9c-0.9,0-1.8,0-2.9,0C66.7,43.4,66.7,44.4,66.7,45.3
		C66.7,45.4,66.7,45.3,66.7,45.3z"/>
	<path class="st0" d="M66.7,54.6c0-1,0-1.9,0-3c-1,0-1.9,0-3,0c0-1.1,0-2,0-3.1c1,0,1.9,0,3,0c0-1.1,0-2.1,0-3.1c0,0,0,0,0,0
		c1,0,1.9,0,3,0c0,1.1,0,2,0,3c1,0,2,0,3,0c0,1.1,0,2,0,3.1c-0.9,0-1.8,0-2.9,0c0,1,0,2,0,3.1C68.6,54.5,67.6,54.5,66.7,54.6
		C66.6,54.5,66.7,54.6,66.7,54.6z"/>
	<path class="st0" d="M78.8,42.4c0,1,0,2.1,0,3.1c0,0,0,0,0,0c-2,0-3.9,0-6,0c0-3,0-6,0-9c0.9,0,1.8,0,2.9,0c0,1.9,0,3.9,0,6
		C76.9,42.4,77.9,42.4,78.8,42.4C78.9,42.4,78.8,42.4,78.8,42.4z"/>
	<path class="st0" d="M63.6,27.2c0,1,0,1.9,0,3c-1,0-1.9,0-3,0c0,1.1,0,1.9,0,3c-1,0-2,0-3,0c0-2.9,0-5.9,0-8.9c0.9,0,1.8,0,2.9,0
		c0,0.9,0,1.8,0,3C61.7,27.2,62.7,27.2,63.6,27.2L63.6,27.2z"/>
	<path class="st0" d="M36.2,24.1c0-1,0-2.1,0-3.1c2,0,4.1,0,6.1,0c0,2,0,3.9,0,6c-1,0-1.9,0-3,0c0-0.9,0-1.8,0-2.9
		C38.2,24.1,37.2,24.1,36.2,24.1z"/>
	<path class="st0" d="M57.5,69.8c2,0,3.9,0,6,0c0,1,0,1.9,0,2.9c-1.9,0-3.8,0-6,0C57.6,71.7,57.6,70.7,57.5,69.8
		C57.6,69.8,57.5,69.8,57.5,69.8z"/>
	<path class="st0" d="M36.3,75.9c0-2,0-3.9,0-6c1,0,1.9,0,2.9,0c0,1.9,0,3.8,0,6C38.2,75.9,37.2,75.9,36.3,75.9
		C36.2,75.9,36.3,75.9,36.3,75.9z"/>
	<path class="st0" d="M27.1,42.4c2,0,3.9,0,6,0c0,1,0,1.9,0,3c-2,0-4,0-6,0c0,0,0,0,0,0C27.1,44.4,27.1,43.4,27.1,42.4L27.1,42.4z"
		/>
	<path class="st0" d="M30.1,63.7c2,0,3.9,0,6,0c0,1,0,1.9,0,2.9c-1.9,0-3.8,0-6,0C30.2,65.6,30.2,64.7,30.1,63.7
		C30.2,63.7,30.1,63.7,30.1,63.7z"/>
	<path class="st0" d="M54.5,18.1c2,0,3.9,0,6,0c0,1,0,1.9,0,3c-2,0-4,0-6,0c0,0,0,0,0,0C54.5,20.1,54.5,19,54.5,18.1L54.5,18.1z"/>
	<path class="st0" d="M45.3,60.6c0,1,0,1.9,0,3c-2,0-3.9,0-6,0c0-0.9,0-1.8,0-2.9C41.4,60.7,43.4,60.7,45.3,60.6
		C45.4,60.7,45.3,60.6,45.3,60.6z"/>
	<path class="st0" d="M78.9,57.6c-1,0-2.1,0-3.1,0c0-1,0-1.9,0-3c1,0,1.9,0,3.1,0C78.9,55.6,78.9,56.6,78.9,57.6z"/>
	<path class="st0" d="M54.5,60.6c0,1,0,1.9,0,3c-1,0-1.9,0-2.9,0c0-0.9,0-1.8,0-2.9C52.5,60.7,53.5,60.7,54.5,60.6
		C54.5,60.7,54.5,60.6,54.5,60.6z"/>
	<path class="st0" d="M45.3,15c0-1,0-1.9,0-3.1c1.1,0,2.1,0,3.1,0c0,1,0,1.9,0,3.1C47.3,15,46.3,15,45.3,15z"/>
	<path class="st0" d="M78.8,45.5c1,0,1.9,0,3,0c0,1,0,1.9,0,2.9c-0.9,0-1.8,0-2.9,0C78.9,47.4,78.9,46.4,78.8,45.5
		C78.9,45.4,78.8,45.5,78.8,45.5z"/>
	<path class="st0" d="M24,66.8c0-1,0-1.9,0-3.1c1.1,0,2.1,0,3.1,0c0,1,0,1.9,0,3.1C26,66.8,25,66.8,24,66.8z"/>
	<path class="st0" d="M66.6,63.7c1,0,1.9,0,3,0c0,1,0,1.9,0,2.9c-0.9,0-1.8,0-2.9,0C66.7,65.6,66.7,64.7,66.6,63.7
		C66.7,63.7,66.6,63.7,66.6,63.7z"/>
	<path class="st1" d="M42.3,39.3c0,1,0,1.9,0,3c-1,0-1.9,0-2.9,0c0-0.9,0-1.8,0-2.9C40.4,39.4,41.4,39.4,42.3,39.3
		C42.3,39.4,42.3,39.3,42.3,39.3z"/>
	<path class="st0" d="M78.8,33.2c1,0,2.1,0,3.1,0c0,1,0,2.1,0,3.1c-1,0-1.9,0-3.1,0C78.8,35.2,78.8,34.2,78.8,33.2z"/>
	<path class="st0" d="M48.4,78.9c-1,0-1.9,0-3,0c0-1,0-1.9,0-2.9c0.9,0,1.8,0,2.9,0C48.4,77,48.4,77.9,48.4,78.9
		C48.4,78.9,48.4,78.9,48.4,78.9z"/>
	<path class="st0" d="M66.6,78.8c-1,0-1.9,0-2.9,0c0-0.9,0-1.9,0-2.9c0.9,0,1.8,0,2.9,0C66.6,76.9,66.6,77.8,66.6,78.8z"/>
	<path class="st1" d="M63.6,27.2c0-0.9,0-1.9,0-3c1,0,1.9,0,3,0c0,1,0,2,0,3c0,0,0,0,0,0C65.6,27.2,64.6,27.2,63.6,27.2
		C63.6,27.2,63.6,27.2,63.6,27.2z"/>
	<path class="st1" d="M48.4,24.1c0,1,0,1.9,0,3c-1,0-1.9,0-2.9,0c0-0.9,0-1.8,0-2.9C46.5,24.1,47.4,24.1,48.4,24.1
		C48.4,24.1,48.4,24.1,48.4,24.1z"/>
	<path class="st0" d="M51.5,18.1c0-1,0-1.9,0-3c1,0,1.9,0,3,0c0,1,0,2,0,3c0,0,0,0,0,0C53.5,18,52.5,18,51.5,18.1L51.5,18.1z"/>
	<path class="st1" d="M9,9C14,9,19,9,24,9c0,5,0,10,0,15c-5,0-9.9,0-15,0C9,19.1,9,14.1,9,9z M12,12c0,3,0,6,0,9c3,0,6,0,8.9,0
		c0-3.1,0-6,0-9C17.9,12,15,12,12,12z"/>
	<path class="st1" d="M8.9,91c0-5.1,0-10,0-15c5,0,10,0,15,0c0,5,0,9.9,0,15C19,91,14,91,8.9,91z M12,87.9c3.1,0,6,0,9,0
		c0-3,0-5.9,0-8.9c-3,0-6,0-9,0C12,82,12,84.9,12,87.9z"/>
	<path class="st1" d="M90.9,24.1c-5.1,0-10,0-15,0c0-5,0-10,0-15c5,0,10,0,15,0C90.9,14,90.9,19,90.9,24.1z M87.9,21c0-3.1,0-6,0-9
		c-3,0-5.9,0-8.9,0c0,3,0,6,0,9C81.9,21,84.9,21,87.9,21z"/>
	<path class="st0" d="M91,85c0,2,0,4.1,0,6.1c-1,0-1.9,0-3,0c0-2,0-4,0-6.1C89.1,85,90.1,85,91,85z"/>
	<path class="st0" d="M14.9,63.7c0-1,0-1.9,0-3c-1.1,0-2,0-3,0c0-1,0-1.9,0-3.1c3.1,0,6.2,0,9.2,0c0,1,0,1.9,0,3c-1,0-2,0-3,0
		c0,1.1,0,2.1,0,3.1C17,63.7,15.9,63.7,14.9,63.7z"/>
	<path class="st0" d="M21,66.8c-1,0-1.9,0-3.1,0c0-1.1,0-2.1,0-3.1c1,0,1.9,0,3.1,0C21,64.8,21,65.8,21,66.8z"/>
	<path class="st0" d="M51.4,88c1,0,2.1,0,3.1,0c0,1,0,1.9,0,3c-1,0-1.9,0-3.1,0C51.4,90,51.4,89,51.4,88z"/>
	<path d="M42.4,51.5c1,0,1.8,0,2.8,0c0,1,0,1.9,0,2.9c-0.9,0-1.8,0-2.8,0C42.4,53.5,42.4,52.5,42.4,51.5z"/>
	<path d="M48.4,48.5c1,0,2.1,0,3.1,0c0,1,0,1.9,0,3c-1,0-1.9,0-3.1,0C48.4,50.4,48.4,49.4,48.4,48.5z"/>
	<path d="M45.3,45.4c1,0,1.9,0,3.1,0c0,1.1,0,2.1,0,3.1c-1,0-1.9,0-3.1,0C45.3,47.4,45.3,46.4,45.3,45.4z"/>
	<path d="M75.7,75.8c-1,0-1.8,0-2.8,0c0-0.9,0-1.9,0-2.9c0.9,0,1.8,0,2.8,0C75.7,73.8,75.7,74.8,75.7,75.8z"/>
	<path d="M27.1,42.4c0,1,0,2.1,0,3.1c-1,0-1.9,0-3,0c0-1,0-1.9,0-3.1C25.1,42.4,26.1,42.4,27.1,42.4z"/>
	<path d="M51.4,18c1,0,2.1,0,3.1,0c0,1,0,2.1,0,3.1c-1,0-1.9,0-3.1,0C51.4,20,51.4,19,51.4,18z"/>
	<path d="M12,12c3,0,5.9,0,8.9,0c0,2.9,0,5.9,0,9C18,21,15,21,12,21C12,18,12,15.1,12,12z"/>
	<path d="M12,87.9c0-3,0-5.9,0-8.9c3,0,6,0,9,0c0,3,0,5.9,0,8.9C18,87.9,15,87.9,12,87.9z"/>
	<path d="M87.9,21c-3,0-5.9,0-8.9,0c0-3,0-6,0-9c3,0,5.9,0,8.9,0C87.9,15,87.9,17.9,87.9,21z"/>
</g>
</svg>
